<svg width="98" height="48" viewBox="0 0 98 48" fill="none" xmlns="http://www.w3.org/2000/svg">
    <path
        d="M79.2534 5.3616C73.1438 5.55401 67.1538 7.1054 61.719 9.903C61.7502 9.966 63.138 5.298 68.31 2.0502C62.2866 0.7254 55.632 0 48.6306 0C21.7608 0 0 10.7544 0 24C0 37.2456 21.7608 48 48.6306 48C75.5004 48 97.2612 37.2456 97.2612 24C97.2612 16.4628 90.2286 9.7452 79.2534 5.3616Z"
        fill="#27809B"
    />
    <path
        d="M30.1812 29.1094C31.632 27.6274 32.3256 25.8928 32.3256 23.9374C32.3256 22.0138 31.632 20.2792 30.2442 18.7966C28.857 17.2828 26.7438 16.5262 23.9052 16.5262H20.2788V31.3486H23.9052C26.649 31.3804 28.7304 30.6232 30.1812 29.1094ZM22.2972 29.3614V18.5134H23.3376C24.8514 18.5134 26.0496 18.6706 26.9646 18.9862C27.8478 19.3012 28.6362 19.9318 29.2668 20.8462C29.8974 21.7612 30.2448 22.8022 30.2448 23.9374C30.2448 24.8518 30.0552 25.6714 29.6448 26.4286C29.235 27.1858 28.6992 27.7846 28.005 28.258C27.3536 28.7088 26.6107 29.0103 25.8294 29.1412C25.0722 29.2672 23.937 29.3302 22.4232 29.3302H22.2972V29.3614ZM43.5846 31.8532C45.3192 31.8532 46.6752 31.3174 47.7162 30.2134C48.7566 29.1412 49.2612 27.6904 49.2612 25.861V16.558H47.2428V26.0188C47.2428 27.2488 46.9278 28.195 46.2654 28.8886C45.603 29.5828 44.6886 29.8978 43.5216 29.8978C42.3234 29.8978 41.4084 29.5198 40.7778 28.7938C40.1154 28.069 39.7998 27.028 39.7998 25.672V16.558H37.782V25.3252C37.782 27.4696 38.3178 29.1094 39.3588 30.2134C40.3992 31.3174 41.8188 31.8532 43.5846 31.8532ZM57.5874 20.8468L68.5626 32.0428V16.5262H66.5442V27.2176L55.569 15.958V31.3804H57.5874V20.8468ZM76.9512 16.5262H74.9646V31.3486H76.9512V16.5262Z"
        fill="white"
    />
</svg>
