<svg width="192" height="40" viewBox="0 0 192 40" fill="none" xmlns="http://www.w3.org/2000/svg">
<path d="M92.6582 0.879865H118.31C126.228 0.879865 130.628 4.67005 130.628 10.4907C130.628 15.4315 126.499 18.5448 119.054 18.7479C127.311 18.8833 131.914 22.8088 131.914 28.4941C131.914 34.5854 126.973 39.1201 119.528 39.1201H92.6582V0.879865ZM116.415 16.176C120.543 16.176 122.844 15.2284 122.844 11.912C122.844 8.39256 120.475 7.37733 116.415 7.37733H100.374L100.442 16.176H116.415ZM117.497 32.555C121.829 32.555 124.13 30.4569 124.13 26.8697C124.13 23.3503 121.829 21.3875 117.497 21.3875H100.442L100.509 32.555H117.497Z" fill="white"/>
<path d="M0.00163932 26.8697H8.12347C8.05579 30.8629 12.9289 33.5025 20.9153 33.5025C29.917 33.5025 34.9255 31.8782 34.9255 28.2234C34.9255 17.868 1.08455 29.8477 1.08455 12.1151C1.01687 4.26396 9.27406 0 21.1861 0C33.6395 0 41.8291 5.27919 41.8967 13.198H33.978C33.978 9.13706 29.1725 6.49746 21.3891 6.49746C13.4703 6.49746 8.93565 8.12183 8.93565 11.4382C8.93565 21.0491 42.7089 9.88156 42.7089 27.8849C42.7089 35.8714 34.2487 40 21.2538 40C8.12347 40 -0.133724 34.6531 0.00163932 26.8697Z" fill="white"/>
<path d="M61.1861 26.802L41.5583 0.879865H51.1015L65.1116 19.9662L79.0541 0.879865H88.5972L69.0372 26.7343V39.1201H61.1861V26.802Z" fill="white"/>
<path d="M167.108 7.71574H150.188V0.879865H191.88V7.71574H174.892V39.1878H167.108V7.71574Z" fill="white"/>
<path d="M145.856 10.7614C145.856 11.3029 145.788 11.8443 145.653 12.3858C144.976 15.5668 142.134 17.7327 137.396 18.3418V0.879865H145.856V10.7614Z" fill="white"/>
<path d="M145.856 26.8697C145.856 26.3283 145.788 25.7868 145.653 25.2453C144.976 22.0643 142.134 19.8985 137.396 19.2893V39.1878H145.856V26.8697Z" fill="white"/>
</svg>
